STARTFONT 2.1
FONT -FontForge-Peking Assignment-Book-R-Normal--58-560-75-75-P-172-ISO10646-1
SIZE 56 75 75
FONTBOUNDINGBOX 33 37 -7 -7
COMMENT "Generated by fontforge, http://fontforge.sourceforge.net"
COMMENT "Copyright NAL 2014"
STARTPROPERTIES 32
FOUNDRY "FontForge"
FAMILY_NAME "Peking Assignment"
WEIGHT_NAME "Book"
SLANT "R"
SETWIDTH_NAME "Normal"
ADD_STYLE_NAME ""
PIXEL_SIZE 58
POINT_SIZE 560
RESOLUTION_X 75
RESOLUTION_Y 75
SPACING "P"
AVERAGE_WIDTH 172
CHARSET_REGISTRY "ISO10646"
CHARSET_ENCODING "1"
FONTNAME_REGISTRY ""
CHARSET_COLLECTIONS "ISO10646-1"
FONT_NAME "Peking-Assignment"
FACE_NAME "Peking Assignment Regular"
COPYRIGHT "Copyright NAL 2014"
FONT_VERSION "001.000"
FONT_ASCENT 46
FONT_DESCENT 12
UNDERLINE_POSITION 0
UNDERLINE_THICKNESS 3
X_HEIGHT 18
CAP_HEIGHT 25
DEFAULT_CHAR 67
RAW_ASCENT 800
RAW_DESCENT 200
NORM_SPACE 6
AVG_LOWERCASE_WIDTH 181
AVG_UPPERCASE_WIDTH 220
ENDPROPERTIES
CHARS 100
STARTCHAR space
ENCODING 32
SWIDTH 100 0
DWIDTH 6 0
BBX 1 1 0 0
BITMAP
00
ENDCHAR
STARTCHAR exclam
ENCODING 33
SWIDTH 125 0
DWIDTH 8 0
BBX 3 26 0 0
BITMAP
E0
E0
E0
E0
E0
E0
E0
E0
E0
E0
E0
E0
E0
E0
E0
E0
E0
E0
00
00
00
00
E0
E0
E0
E0
ENDCHAR
STARTCHAR quotedbl
ENCODING 34
SWIDTH 187 0
DWIDTH 11 0
BBX 7 7 0 19
BITMAP
FE
FE
FE
FE
FE
DC
98
ENDCHAR
STARTCHAR numbersign
ENCODING 35
SWIDTH 375 0
DWIDTH 22 0
BBX 18 26 0 0
BITMAP
1E1E00
1E1E00
1E1E00
1E1E00
1E1E00
1E1E00
1E1E00
FFFFC0
FFFFC0
FFFFC0
FFFFC0
FE1E00
1E1E00
1E1E00
1F1E00
FFFFC0
FFFFC0
FFFFC0
1F1E00
1E1E00
1E1E00
1E1E00
1E1E00
1E1E00
1E1E00
0E1E00
ENDCHAR
STARTCHAR dollar
ENCODING 36
SWIDTH 375 0
DWIDTH 22 0
BBX 18 32 0 -2
BITMAP
01E000
01E000
01E000
0FFFC0
1FFFC0
3FFFC0
7FFFC0
F1E3C0
E1E3C0
E1E3C0
E1E3C0
E1E000
E1E000
E1E000
E1FFC0
FFFFC0
FFFFC0
FFFFC0
01E3C0
01E3C0
01E3C0
01E3C0
E1E3C0
E1E3C0
E1E3C0
F1E3C0
FFFF80
FFFF00
FFFE00
01E000
01E000
01E000
ENDCHAR
STARTCHAR percent
ENCODING 37
SWIDTH 375 0
DWIDTH 22 0
BBX 18 26 0 0
BITMAP
FE03C0
FE03C0
FE03C0
FE03C0
FE03C0
FE03C0
FE03C0
0003C0
0003C0
0003C0
0003C0
0003C0
3FFF80
7FFF00
FFFE00
E00000
E00000
E00000
E01FC0
E01FC0
E01FC0
E01FC0
E01FC0
E01FC0
E01FC0
E01FC0
ENDCHAR
STARTCHAR ampersand
ENCODING 38
SWIDTH 375 0
DWIDTH 22 0
BBX 18 26 0 0
BITMAP
E1E000
E3E000
E7E000
EFE000
E00000
E00000
E00000
E01C00
E01E00
E01E00
E01E00
F03FC0
7FFFC0
3FFFC0
1FFFC0
E01E00
E01E00
E01E00
E01E00
E01E00
E01E00
E01E00
FFFFC0
FFFFC0
FFFFC0
FFFFC0
ENDCHAR
STARTCHAR quotesingle
ENCODING 39
SWIDTH 125 0
DWIDTH 8 0
BBX 3 7 0 19
BITMAP
E0
E0
E0
E0
E0
C0
80
ENDCHAR
STARTCHAR parenleft
ENCODING 40
SWIDTH 187 0
DWIDTH 11 0
BBX 7 26 0 0
BITMAP
FE
FE
FE
FE
E0
E0
E0
E0
E0
E0
E0
E0
E0
E0
E0
E0
E0
E0
E0
E0
E0
E0
FE
FE
FE
FE
ENDCHAR
STARTCHAR parenright
ENCODING 41
SWIDTH 187 0
DWIDTH 11 0
BBX 7 26 0 0
BITMAP
FE
FE
FE
FE
1E
1E
1E
1E
1E
1E
1E
1E
1E
1E
1E
1E
1E
1E
1E
1E
1E
1E
FE
FE
FE
FE
ENDCHAR
STARTCHAR asterisk
ENCODING 42
SWIDTH 250 0
DWIDTH 15 0
BBX 11 11 0 15
BITMAP
1E00
9E20
DE60
FFE0
1F00
1E00
1E00
FFC0
FFE0
DE60
9E20
ENDCHAR
STARTCHAR plus
ENCODING 43
SWIDTH 250 0
DWIDTH 15 0
BBX 11 11 0 7
BITMAP
1E00
1E00
1E00
1FE0
FFE0
FFE0
FFE0
1F00
1E00
1E00
1E00
ENDCHAR
STARTCHAR comma
ENCODING 44
SWIDTH 125 0
DWIDTH 8 0
BBX 3 7 0 -3
BITMAP
E0
E0
E0
E0
E0
C0
80
ENDCHAR
STARTCHAR hyphen
ENCODING 45
SWIDTH 250 0
DWIDTH 15 0
BBX 11 4 0 12
BITMAP
FFE0
FFE0
FFE0
FFE0
ENDCHAR
STARTCHAR period
ENCODING 46
SWIDTH 125 0
DWIDTH 8 0
BBX 3 3 0 1
BITMAP
E0
E0
E0
ENDCHAR
STARTCHAR slash
ENCODING 47
SWIDTH 375 0
DWIDTH 22 0
BBX 18 26 0 0
BITMAP
0003C0
0003C0
0003C0
0003C0
0003C0
0003C0
0003C0
0003C0
0003C0
0003C0
0003C0
0003C0
3FFF80
7FFF00
FFFE00
E00000
E00000
E00000
E00000
E00000
E00000
E00000
E00000
E00000
E00000
E00000
ENDCHAR
STARTCHAR zero
ENCODING 48
SWIDTH 300 0
DWIDTH 18 0
BBX 15 26 0 0
BITMAP
FFFE
FFFE
FFFE
FFFE
E01E
E01E
E01E
E01E
E03E
E07E
E0FE
E1DE
E39E
E71E
EE1E
FC1E
F81E
F01E
E01E
E01E
E01E
E01E
FFFE
FFFE
FFFE
FFFE
ENDCHAR
STARTCHAR one
ENCODING 49
SWIDTH 300 0
DWIDTH 18 0
BBX 6 26 7 0
BITMAP
3C
3C
3C
7C
FC
FC
FC
04
0C
1C
3C
3C
3C
3C
3C
3C
3C
3C
3C
3C
3C
3C
3C
3C
3C
3C
ENDCHAR
STARTCHAR two
ENCODING 50
SWIDTH 300 0
DWIDTH 18 0
BBX 15 26 0 0
BITMAP
E1F0
E3F8
E7FC
EFFE
E01E
E01E
E01E
001E
001E
001E
001E
003E
FFFE
FFFE
FFFE
E000
E000
E000
E01E
E01E
E01E
E01E
FFFE
FFDE
FF9E
FF1E
ENDCHAR
STARTCHAR three
ENCODING 51
SWIDTH 300 0
DWIDTH 18 0
BBX 15 26 0 0
BITMAP
FF1E
FF9E
FFDE
FFFE
E01E
E01E
E01E
001E
001E
001E
001E
003E
1FFC
1FF8
1FF0
001E
001E
001E
E01E
E01E
E01E
E01E
FFFE
FFFE
FFFE
FFFE
ENDCHAR
STARTCHAR four
ENCODING 52
SWIDTH 300 0
DWIDTH 18 0
BBX 15 26 0 0
BITMAP
E0F0
E0F0
E0F0
E0F0
E0F0
E0F0
E0F0
E0F0
E0F0
E0F0
E0F0
E0F0
E0F0
E0F0
E0F0
E3FE
E7FE
EFFE
00F8
00F0
00F0
00F0
00F0
00F0
00F0
0070
ENDCHAR
STARTCHAR five
ENCODING 53
SWIDTH 300 0
DWIDTH 18 0
BBX 15 26 0 0
BITMAP
FF1E
FF9E
FFDE
FFFE
E01E
E01E
E01E
E000
E000
E000
E000
FFFE
FFFE
FFFE
FFFE
001E
001E
001E
E01E
E01E
E01E
E01E
EFFC
E7F8
E7F0
E7E0
ENDCHAR
STARTCHAR six
ENCODING 54
SWIDTH 300 0
DWIDTH 18 0
BBX 15 26 0 0
BITMAP
FF1E
FF9E
FFDE
FFFE
E01E
E01E
E01E
E000
E000
E000
E000
E1FE
E3FE
E7FE
EFFE
E01E
E01E
E01E
E01E
E01E
E01E
E01E
FFFE
FFFE
FFFE
FFFE
ENDCHAR
STARTCHAR seven
ENCODING 55
SWIDTH 300 0
DWIDTH 18 0
BBX 15 26 0 0
BITMAP
E1FE
E3FE
E7FE
EFFE
E01E
E01E
E01E
001E
001E
001E
001E
003E
3FFC
7FF8
FFF0
E000
E000
E000
E000
E000
E000
E000
E000
E000
E000
E000
ENDCHAR
STARTCHAR eight
ENCODING 56
SWIDTH 300 0
DWIDTH 18 0
BBX 15 26 0 0
BITMAP
FF1E
FF9E
FFDE
FFFE
E01E
E01E
E01E
E01E
E01E
E01E
E01E
F03E
3FFC
7FF8
FFF0
E01E
E01E
E01E
E01E
E01E
E01E
E01E
FFFE
FFFE
FFFE
FFFE
ENDCHAR
STARTCHAR nine
ENCODING 57
SWIDTH 300 0
DWIDTH 18 0
BBX 15 26 0 0
BITMAP
FFFE
FFFE
FFFE
FFFE
E01E
E01E
E01E
E01E
E01E
E01E
E01E
FFFE
FFFE
FF9E
FF1E
001E
001E
001E
E01E
E01E
E01E
E01E
EFFE
E7FE
E3FE
E1FE
ENDCHAR
STARTCHAR colon
ENCODING 58
SWIDTH 100 0
DWIDTH 6 0
BBX 3 12 0 7
BITMAP
E0
E0
E0
E0
00
00
00
E0
E0
E0
E0
E0
ENDCHAR
STARTCHAR semicolon
ENCODING 59
SWIDTH 100 0
DWIDTH 6 0
BBX 3 14 0 5
BITMAP
E0
E0
E0
E0
00
00
00
E0
E0
E0
E0
E0
C0
80
ENDCHAR
STARTCHAR less
ENCODING 60
SWIDTH 187 0
DWIDTH 11 0
BBX 7 26 0 0
BITMAP
FE
FE
FE
FE
E0
E0
E0
E0
E0
E0
E0
E0
E0
E0
E0
E0
E0
E0
E0
E0
E0
E0
FE
FE
FE
FE
ENDCHAR
STARTCHAR equal
ENCODING 61
SWIDTH 250 0
DWIDTH 15 0
BBX 11 11 0 7
BITMAP
FFE0
FFE0
FFE0
FFE0
0000
0000
0000
FFC0
FFE0
FFE0
FFE0
ENDCHAR
STARTCHAR greater
ENCODING 62
SWIDTH 187 0
DWIDTH 11 0
BBX 7 26 0 0
BITMAP
FE
FE
FE
FE
1E
1E
1E
1E
1E
1E
1E
1E
1E
1E
1E
1E
1E
1E
1E
1E
1E
1E
FE
FE
FE
FE
ENDCHAR
STARTCHAR question
ENCODING 63
SWIDTH 375 0
DWIDTH 22 0
BBX 18 26 0 0
BITMAP
E1FE00
E3FF00
E7FF80
EFFFC0
E003C0
E003C0
E003C0
0003C0
0003C0
0003C0
0003C0
0003C0
1FFFC0
1FFFC0
1FFFC0
1E0000
1E0000
1E0000
000000
000000
000000
000000
0E0000
1E0000
1E0000
0E0000
ENDCHAR
STARTCHAR at
ENCODING 64
SWIDTH 375 0
DWIDTH 22 0
BBX 18 26 0 0
BITMAP
FFFFC0
FFFFC0
FFFFC0
FFFFC0
E003C0
E003C0
E003C0
E0C3C0
E1E3C0
E1E3C0
E1E3C0
E1E3C0
E1E3C0
E1E3C0
E1E3C0
E1E3C0
E1E7C0
E1EFC0
000000
200000
600000
E00000
FFFFC0
FFFFC0
FFFFC0
FFFFC0
ENDCHAR
STARTCHAR A
ENCODING 65
SWIDTH 375 0
DWIDTH 22 0
BBX 18 26 0 0
BITMAP
FFFFC0
FFFFC0
FFFFC0
FFFFC0
E003C0
E003C0
E003C0
E003C0
E003C0
E003C0
E003C0
E003C0
E3FFC0
E7FFC0
EFFFC0
E003C0
E003C0
E003C0
E003C0
E003C0
E003C0
E003C0
E003C0
E003C0
E003C0
E003C0
ENDCHAR
STARTCHAR B
ENCODING 66
SWIDTH 375 0
DWIDTH 22 0
BBX 18 26 0 0
BITMAP
E1FFC0
E3FFC0
E7FFC0
EFFFC0
E003C0
E003C0
E003C0
E003C0
E003C0
E003C0
E003C0
E003C0
E3FF80
E7FF00
EFFE00
E003C0
E003C0
E003C0
E003C0
E003C0
E003C0
E003C0
EFFFC0
E7FFC0
E3FFC0
E1FFC0
ENDCHAR
STARTCHAR C
ENCODING 67
SWIDTH 375 0
DWIDTH 22 0
BBX 18 26 0 0
BITMAP
FFE3C0
FFF3C0
FFFBC0
FFFFC0
E003C0
E003C0
E003C0
E00000
E00000
E00000
E00000
E00000
E00000
E00000
E00000
E00000
E00000
E00000
E003C0
E003C0
E003C0
E003C0
FFFFC0
FFFBC0
FFF3C0
FFE3C0
ENDCHAR
STARTCHAR D
ENCODING 68
SWIDTH 375 0
DWIDTH 22 0
BBX 18 26 0 0
BITMAP
E1FFC0
E3FFC0
E7FFC0
EFFFC0
E003C0
E003C0
E003C0
E003C0
E003C0
E003C0
E003C0
E003C0
E003C0
E003C0
E003C0
E003C0
E003C0
E003C0
E003C0
E003C0
E003C0
E003C0
EFFFC0
E7FFC0
E3FFC0
E1FFC0
ENDCHAR
STARTCHAR E
ENCODING 69
SWIDTH 375 0
DWIDTH 22 0
BBX 18 26 0 0
BITMAP
E1FFC0
E3FFC0
E7FFC0
EFFFC0
E003C0
E003C0
E003C0
E00000
E00000
E00000
E00000
E1FE00
E3FE00
E7FE00
EFFE00
E00000
E00000
E00000
E003C0
E003C0
E003C0
E003C0
FFFFC0
FFFFC0
FFFFC0
FFFFC0
ENDCHAR
STARTCHAR F
ENCODING 70
SWIDTH 375 0
DWIDTH 22 0
BBX 18 26 0 0
BITMAP
E1FFC0
E3FFC0
E7FFC0
EFFFC0
E003C0
E003C0
E003C0
E00000
E00000
E00000
E00000
E1FE00
E3FE00
E7FE00
EFFE00
E00000
E00000
E00000
E00000
E00000
E00000
E00000
E00000
E00000
E00000
E00000
ENDCHAR
STARTCHAR G
ENCODING 71
SWIDTH 375 0
DWIDTH 22 0
BBX 18 26 0 0
BITMAP
FFE3C0
FFF3C0
FFFBC0
FFFFC0
E003C0
E003C0
E003C0
E00000
E00000
E00000
E00000
E1FFC0
E1FFC0
E1FFC0
E0FFC0
E003C0
E003C0
E003C0
E003C0
E003C0
E003C0
E003C0
FFFFC0
FFFBC0
FFF3C0
FFE3C0
ENDCHAR
STARTCHAR H
ENCODING 72
SWIDTH 375 0
DWIDTH 22 0
BBX 18 26 0 0
BITMAP
E003C0
E003C0
E003C0
E003C0
E003C0
E003C0
E003C0
E003C0
E003C0
E003C0
E003C0
E003C0
E3FFC0
E7FFC0
EFFFC0
E003C0
E003C0
E003C0
E003C0
E003C0
E003C0
E003C0
E003C0
E003C0
E003C0
E003C0
ENDCHAR
STARTCHAR I
ENCODING 73
SWIDTH 125 0
DWIDTH 8 0
BBX 3 26 0 0
BITMAP
E0
E0
E0
E0
E0
E0
E0
E0
E0
E0
E0
E0
E0
E0
E0
E0
E0
E0
E0
E0
E0
E0
E0
E0
E0
E0
ENDCHAR
STARTCHAR J
ENCODING 74
SWIDTH 375 0
DWIDTH 22 0
BBX 18 26 0 0
BITMAP
001FC0
001FC0
001FC0
001FC0
0003C0
0003C0
0003C0
0003C0
0003C0
0003C0
0003C0
0003C0
0003C0
0003C0
0003C0
0003C0
0003C0
0003C0
E003C0
E003C0
E003C0
E003C0
EFFFC0
E7FFC0
E3FFC0
E1FFC0
ENDCHAR
STARTCHAR K
ENCODING 75
SWIDTH 375 0
DWIDTH 22 0
BBX 18 26 0 0
BITMAP
E003C0
E003C0
E003C0
E003C0
E003C0
E003C0
E003C0
E003C0
E003C0
E003C0
E003C0
E003C0
E3FF80
E7FF00
EFFE00
E003C0
E003C0
E003C0
E003C0
E003C0
E003C0
E003C0
E003C0
E003C0
E003C0
E003C0
ENDCHAR
STARTCHAR L
ENCODING 76
SWIDTH 375 0
DWIDTH 22 0
BBX 18 26 0 0
BITMAP
FE0000
FE0000
FE0000
FE0000
E00000
E00000
E00000
E00000
E00000
E00000
E00000
E00000
E00000
E00000
E00000
E00000
E00000
E00000
E003C0
E003C0
E003C0
E003C0
E1FFC0
E3FFC0
E7FFC0
EFFFC0
ENDCHAR
STARTCHAR M
ENCODING 77
SWIDTH 500 0
DWIDTH 30 0
BBX 26 26 0 0
BITMAP
E1FE3FC0
E3FE7FC0
E7FEFFC0
EFFFFFC0
E01E07C0
E01E03C0
E01E03C0
E01E03C0
E01E03C0
E01E03C0
E01E03C0
E01E03C0
E01E03C0
E01E03C0
E01E03C0
E01E03C0
E01E03C0
E01E03C0
E01E03C0
E01E03C0
E01E03C0
E01E03C0
E01E03C0
E01E03C0
E01E03C0
E01E0380
ENDCHAR
STARTCHAR N
ENCODING 78
SWIDTH 375 0
DWIDTH 22 0
BBX 18 26 0 0
BITMAP
E1FFC0
E3FFC0
E7FFC0
EFFFC0
E003C0
E003C0
E003C0
E003C0
E003C0
E003C0
E003C0
E003C0
E003C0
E003C0
E003C0
E003C0
E003C0
E003C0
E003C0
E003C0
E003C0
E003C0
E003C0
E003C0
E003C0
E003C0
ENDCHAR
STARTCHAR O
ENCODING 79
SWIDTH 375 0
DWIDTH 22 0
BBX 18 26 0 0
BITMAP
FFFFC0
FFFFC0
FFFFC0
FFFFC0
E003C0
E003C0
E003C0
E003C0
E003C0
E003C0
E003C0
E003C0
E003C0
E003C0
E003C0
E003C0
E003C0
E003C0
E003C0
E003C0
E003C0
E003C0
FFFFC0
FFFFC0
FFFFC0
FFFFC0
ENDCHAR
STARTCHAR P
ENCODING 80
SWIDTH 375 0
DWIDTH 22 0
BBX 18 26 0 0
BITMAP
E1FFC0
E3FFC0
E7FFC0
EFFFC0
E003C0
E003C0
E003C0
E003C0
E003C0
E003C0
E003C0
E003C0
E7FFC0
E3FFC0
E1FFC0
E00000
E00000
E00000
E00000
E00000
E00000
E00000
E00000
E00000
E00000
E00000
ENDCHAR
STARTCHAR Q
ENCODING 81
SWIDTH 375 0
DWIDTH 22 0
BBX 18 29 0 -3
BITMAP
FFFFC0
FFFFC0
FFFFC0
FFFFC0
E003C0
E003C0
E003C0
E003C0
E003C0
E003C0
E003C0
E003C0
E003C0
E003C0
E003C0
E1E3C0
E1E3C0
E1E3C0
E1E3C0
E1E3C0
E1E3C0
E1E3C0
FFEFC0
FFEFC0
FFE7C0
FFE3C0
01E000
01E000
01E000
ENDCHAR
STARTCHAR R
ENCODING 82
SWIDTH 375 0
DWIDTH 22 0
BBX 18 26 0 0
BITMAP
E1FFC0
E3FFC0
E7FFC0
EFFFC0
E003C0
E003C0
E003C0
E003C0
E003C0
E003C0
E003C0
FFFFC0
E7FF00
E3FF80
E1FFC0
E003C0
E003C0
E003C0
E003C0
E003C0
E003C0
E003C0
E003C0
E003C0
E003C0
E003C0
ENDCHAR
STARTCHAR S
ENCODING 83
SWIDTH 375 0
DWIDTH 22 0
BBX 18 26 0 0
BITMAP
FFE3C0
FFF3C0
FFFBC0
FFFFC0
E003C0
E003C0
E003C0
E00000
E00000
E00000
E00000
FFFFC0
FFFFC0
FFFFC0
FFFFC0
0003C0
0003C0
0003C0
E003C0
E003C0
E003C0
E003C0
EFFFC0
E7FFC0
E3FFC0
E1FFC0
ENDCHAR
STARTCHAR T
ENCODING 84
SWIDTH 375 0
DWIDTH 22 0
BBX 18 26 0 0
BITMAP
FFFFC0
FDFFC0
F9FFC0
F1FFC0
E1E3C0
E1E3C0
E1E3C0
01E000
01E000
01E000
01E000
01E000
01E000
01E000
01E000
01E000
01E000
01E000
01E000
01E000
01E000
01E000
01E000
01E000
01E000
00E000
ENDCHAR
STARTCHAR U
ENCODING 85
SWIDTH 375 0
DWIDTH 22 0
BBX 18 26 0 0
BITMAP
E003C0
E003C0
E003C0
E003C0
E003C0
E003C0
E003C0
E003C0
E003C0
E003C0
E003C0
E003C0
E003C0
E003C0
E003C0
E003C0
E003C0
E003C0
E003C0
E003C0
E003C0
E003C0
FFFFC0
FFFBC0
FFF3C0
FFE3C0
ENDCHAR
STARTCHAR V
ENCODING 86
SWIDTH 375 0
DWIDTH 22 0
BBX 18 26 0 0
BITMAP
E003C0
E003C0
E003C0
E003C0
E003C0
E003C0
E003C0
E003C0
E003C0
E003C0
E003C0
E003C0
E003C0
E003C0
E003C0
E003C0
E003C0
E003C0
E003C0
E003C0
E003C0
E003C0
7FFFC0
3FFF80
1FFF00
0FFE00
ENDCHAR
STARTCHAR W
ENCODING 87
SWIDTH 500 0
DWIDTH 30 0
BBX 26 26 0 0
BITMAP
E01E03C0
E01E03C0
E01E03C0
E01E03C0
E01E03C0
E01E03C0
E01E03C0
E01E03C0
E01E03C0
E01E03C0
E01E03C0
E01E03C0
E01E03C0
E01E03C0
E01E03C0
E01E03C0
E01E03C0
E01E03C0
E01E03C0
E01E03C0
E01E03C0
E01E03C0
FFDFF3C0
FF9FF3C0
FF1FE3C0
FE1FC380
ENDCHAR
STARTCHAR X
ENCODING 88
SWIDTH 375 0
DWIDTH 22 0
BBX 18 26 0 0
BITMAP
E003C0
E003C0
E003C0
E003C0
E003C0
E003C0
E003C0
E003C0
6003C0
2003C0
0003C0
0003C0
FFFFC0
FFFFC0
FFFFC0
E00200
E00300
E00380
E003C0
E003C0
E003C0
E003C0
E003C0
E003C0
E003C0
E003C0
ENDCHAR
STARTCHAR Y
ENCODING 89
SWIDTH 375 0
DWIDTH 22 0
BBX 18 26 0 0
BITMAP
E003C0
E003C0
E003C0
E003C0
E003C0
E003C0
E003C0
E003C0
6003C0
2003C0
0003C0
0003C0
FFFFC0
FFFFC0
FFFFC0
000000
018000
01C000
01E000
01E000
01E000
01E000
01E000
01E000
01E000
00E000
ENDCHAR
STARTCHAR Z
ENCODING 90
SWIDTH 375 0
DWIDTH 22 0
BBX 18 26 0 0
BITMAP
E1FFC0
E3FFC0
E7FFC0
EFFFC0
E003C0
E003C0
E003C0
0003C0
0003C0
0003C0
0003C0
0003C0
3FFF80
7FFF00
FFFE00
E00000
E00000
E00000
E003C0
E003C0
E003C0
E003C0
FFFFC0
FFFBC0
FFF3C0
FFE3C0
ENDCHAR
STARTCHAR bracketleft
ENCODING 91
SWIDTH 187 0
DWIDTH 11 0
BBX 7 26 0 0
BITMAP
FE
FE
FE
FE
E0
E0
E0
E0
E0
E0
E0
E0
E0
E0
E0
E0
E0
E0
E0
E0
E0
E0
FE
FE
FE
FE
ENDCHAR
STARTCHAR backslash
ENCODING 92
SWIDTH 375 0
DWIDTH 22 0
BBX 18 26 0 0
BITMAP
E00000
E00000
E00000
E00000
E00000
E00000
E00000
E00000
E00000
E00000
E00000
FFFE00
7FFF00
3FFF80
1FFFC0
0003C0
0003C0
0003C0
0003C0
0003C0
0003C0
0003C0
0003C0
0003C0
0003C0
0003C0
ENDCHAR
STARTCHAR bracketright
ENCODING 93
SWIDTH 187 0
DWIDTH 11 0
BBX 7 26 0 0
BITMAP
FE
FE
FE
FE
1E
1E
1E
1E
1E
1E
1E
1E
1E
1E
1E
1E
1E
1E
1E
1E
1E
1E
FE
FE
FE
FE
ENDCHAR
STARTCHAR asciicircum
ENCODING 94
SWIDTH 125 0
DWIDTH 8 0
BBX 3 7 0 19
BITMAP
E0
E0
E0
E0
E0
C0
80
ENDCHAR
STARTCHAR underscore
ENCODING 95
SWIDTH 375 0
DWIDTH 22 0
BBX 18 3 0 1
BITMAP
FFFFC0
FFFFC0
FFFFC0
ENDCHAR
STARTCHAR grave
ENCODING 96
SWIDTH 125 0
DWIDTH 8 0
BBX 3 7 0 19
BITMAP
E0
E0
E0
E0
E0
C0
80
ENDCHAR
STARTCHAR a
ENCODING 97
SWIDTH 312 0
DWIDTH 19 0
BBX 15 18 0 1
BITMAP
FF1E
FF9E
FFDE
F01E
E01E
E01E
E01E
E01E
E01E
E01E
E01E
E01E
E01E
E01E
E01E
FFDE
FF9E
FF1E
ENDCHAR
STARTCHAR b
ENCODING 98
SWIDTH 312 0
DWIDTH 19 0
BBX 15 26 0 0
BITMAP
E000
E000
E000
E000
E000
E000
E000
E1FC
E3FE
E7FE
EFFE
FFFE
E01E
E01E
E01E
E01E
E01E
E01E
E01E
E01E
E01E
E01E
EFFE
E7FE
E3FE
E1FE
ENDCHAR
STARTCHAR c
ENCODING 99
SWIDTH 312 0
DWIDTH 19 0
BBX 15 18 0 1
BITMAP
FFFE
FFFE
FFFE
FFFE
201E
201E
601E
E000
E000
E000
E000
E01E
E01E
E01E
E01E
FFFE
FFFE
FFFE
ENDCHAR
STARTCHAR d
ENCODING 100
SWIDTH 312 0
DWIDTH 19 0
BBX 15 26 0 0
BITMAP
001E
001E
001E
001E
001E
001E
001E
FE1E
FF1E
FF9E
FFDE
E01E
E01E
E01E
E01E
E01E
E01E
E01E
E01E
E01E
E01E
E01E
FFDE
FF9E
FF1E
FE1E
ENDCHAR
STARTCHAR e
ENCODING 101
SWIDTH 312 0
DWIDTH 19 0
BBX 15 18 0 1
BITMAP
FFFE
FFFE
FFFE
FFFE
201E
201E
601E
E7FE
E7FE
E3FE
E1FE
E000
E000
E000
E000
FFFE
FFFE
FFFE
ENDCHAR
STARTCHAR f
ENCODING 102
SWIDTH 250 0
DWIDTH 15 0
BBX 11 26 0 0
BITMAP
FFE0
FFE0
FFE0
FFE0
6000
2000
0000
FFC0
FFE0
FFE0
FFE0
E000
E000
E000
E000
E000
E000
E000
E000
E000
E000
E000
E000
E000
E000
E000
ENDCHAR
STARTCHAR g
ENCODING 103
SWIDTH 312 0
DWIDTH 19 0
BBX 15 26 0 -7
BITMAP
FF1E
FF9E
FFDE
F01E
E01E
E01E
E01E
E01E
E01E
E01E
E01E
E01E
E01E
E01E
E01E
FFDE
FF9E
FF1E
001E
001E
001E
003E
1FFE
1FFE
1FFE
0FFE
ENDCHAR
STARTCHAR h
ENCODING 104
SWIDTH 312 0
DWIDTH 19 0
BBX 15 26 0 0
BITMAP
E000
E000
E000
E000
E000
E000
E000
E1FC
E3FE
E7FE
EFFE
FFFE
E01E
E01E
E01E
E01E
E01E
E01E
E01E
E01E
E01E
E01E
E01E
E01E
E01E
E01E
ENDCHAR
STARTCHAR i
ENCODING 105
SWIDTH 125 0
DWIDTH 8 0
BBX 3 26 0 0
BITMAP
E0
E0
E0
E0
00
00
00
E0
E0
E0
E0
E0
E0
E0
E0
E0
E0
E0
E0
E0
E0
E0
E0
E0
E0
E0
ENDCHAR
STARTCHAR j
ENCODING 106
SWIDTH 125 0
DWIDTH 8 0
BBX 11 33 -7 -6
BITMAP
01E0
01E0
01E0
01E0
0000
0000
0000
00C0
01E0
01E0
01E0
01E0
01E0
01E0
01E0
01E0
01E0
01E0
01E0
01E0
01E0
01E0
01E0
01E0
01E0
01E0
01E0
01E0
01E0
FFE0
FFE0
FFE0
FFE0
ENDCHAR
STARTCHAR k
ENCODING 107
SWIDTH 312 0
DWIDTH 19 0
BBX 15 26 0 0
BITMAP
E000
E000
E000
E000
E000
E000
E000
E01C
E01E
E01E
E01E
E01E
601E
201E
001E
FFFE
FFFE
FFFE
E000
E010
E018
E01C
E01E
E01E
E01E
E01E
ENDCHAR
STARTCHAR l
ENCODING 108
SWIDTH 125 0
DWIDTH 8 0
BBX 3 26 0 0
BITMAP
E0
E0
E0
E0
E0
E0
E0
E0
E0
E0
E0
E0
E0
E0
E0
E0
E0
E0
E0
E0
E0
E0
E0
E0
E0
E0
ENDCHAR
STARTCHAR m
ENCODING 109
SWIDTH 500 0
DWIDTH 30 0
BBX 26 18 0 1
BITMAP
E1FE7FC0
E3FEFFC0
E7FFFFC0
FFFFFFC0
E01E07C0
E01E03C0
E01E03C0
E01E03C0
E01E03C0
E01E03C0
E01E03C0
E01E03C0
E01E03C0
E01E03C0
E01E03C0
E01E03C0
E01E03C0
E01E03C0
ENDCHAR
STARTCHAR n
ENCODING 110
SWIDTH 312 0
DWIDTH 19 0
BBX 15 18 0 1
BITMAP
E1FE
E3FE
E7FE
FFFE
E01E
E01E
E01E
E01E
E01E
E01E
E01E
E01E
E01E
E01E
E01E
E01E
E01E
E01E
ENDCHAR
STARTCHAR o
ENCODING 111
SWIDTH 312 0
DWIDTH 19 0
BBX 15 18 0 1
BITMAP
FFFE
FFFE
FFFE
F01E
E01E
E01E
E01E
E01E
E01E
E01E
E01E
E01E
E01E
E01E
E01E
FFFE
FFFE
FFFE
ENDCHAR
STARTCHAR p
ENCODING 112
SWIDTH 312 0
DWIDTH 19 0
BBX 15 26 0 -7
BITMAP
E1FE
E3FE
E7FE
FFFE
E01E
E01E
E01E
E01E
E01E
E01E
E01E
E01E
E01E
E01E
E01E
EFFE
E7FE
E3FE
E000
E000
E000
E000
E000
E000
E000
E000
ENDCHAR
STARTCHAR q
ENCODING 113
SWIDTH 312 0
DWIDTH 19 0
BBX 15 26 0 -7
BITMAP
FF1E
FF9E
FFDE
F01E
E01E
E01E
E01E
E01E
E01E
E01E
E01E
E01E
E01E
E01E
E01E
FFDE
FF9E
FF1E
001E
001E
001E
001E
001E
001E
001E
001E
ENDCHAR
STARTCHAR r
ENCODING 114
SWIDTH 250 0
DWIDTH 15 0
BBX 11 18 0 1
BITMAP
E1E0
E3E0
E7E0
FFE0
E000
E000
E000
E000
E000
E000
E000
E000
E000
E000
E000
E000
E000
E000
ENDCHAR
STARTCHAR s
ENCODING 115
SWIDTH 312 0
DWIDTH 19 0
BBX 15 18 0 1
BITMAP
FFFE
FFFE
FFFE
F000
6000
2000
0000
FFFC
FFFE
FFFE
FFFE
001E
001E
001E
001E
FFFE
FFFE
FFFE
ENDCHAR
STARTCHAR t
ENCODING 116
SWIDTH 250 0
DWIDTH 15 0
BBX 11 26 0 0
BITMAP
E000
E000
E000
E000
E000
E000
E000
FFC0
FFE0
FFE0
FFE0
FFC0
2000
6000
E000
E000
E000
E000
E000
E000
E000
E000
FFC0
FFE0
FFE0
FFE0
ENDCHAR
STARTCHAR u
ENCODING 117
SWIDTH 312 0
DWIDTH 19 0
BBX 15 18 0 1
BITMAP
E01E
E01E
E01E
E01E
E01E
E01E
E01E
E01E
E01E
E01E
E01E
E01E
E01E
E01E
E01E
FFDE
FF9E
FF1E
ENDCHAR
STARTCHAR v
ENCODING 118
SWIDTH 312 0
DWIDTH 19 0
BBX 15 18 0 1
BITMAP
E01E
E01E
E01E
E01E
E01E
E01E
E01E
E01E
E01E
E01E
E01E
E01E
E01E
E01E
E01E
7FFC
3FF8
1FF0
ENDCHAR
STARTCHAR w
ENCODING 119
SWIDTH 500 0
DWIDTH 30 0
BBX 26 18 0 1
BITMAP
E01E03C0
E01E03C0
E01E03C0
E01E03C0
E01E03C0
E01E03C0
E01E03C0
E01E03C0
E01E03C0
E01E03C0
E01E03C0
E01E03C0
E01E03C0
E01E03C0
E01E03C0
FFDFFBC0
FF9FF3C0
FF1FE3C0
ENDCHAR
STARTCHAR x
ENCODING 120
SWIDTH 312 0
DWIDTH 19 0
BBX 15 18 0 1
BITMAP
E01E
E01E
E01E
E01E
601E
201E
001E
FFFE
FFFE
FFFE
FFFE
E000
E010
E018
E01C
E01E
E01E
E01E
ENDCHAR
STARTCHAR y
ENCODING 121
SWIDTH 312 0
DWIDTH 19 0
BBX 15 26 0 -7
BITMAP
E01E
E01E
E01E
E01E
E01E
E01E
E01E
E01E
E01E
E01E
E01E
E01E
E01E
E01E
E01E
FFDE
FF9E
FF1E
001E
001E
001E
003E
1FFE
1FFE
1FFE
0FFE
ENDCHAR
STARTCHAR z
ENCODING 122
SWIDTH 312 0
DWIDTH 19 0
BBX 15 18 0 1
BITMAP
FFFE
FFFE
FFFE
FFFE
001E
001E
001E
FFFE
FFFE
FFFE
FFFE
E000
6000
2000
0000
FFFE
FFFE
FFFE
ENDCHAR
STARTCHAR braceleft
ENCODING 123
SWIDTH 250 0
DWIDTH 15 0
BBX 11 26 0 0
BITMAP
1FE0
1FE0
1FE0
1FE0
1F00
1E00
1E00
1E00
1E00
1E00
1E00
1E00
FE00
FE00
FE00
1E00
1E00
1E00
1E00
1E00
1E00
1E00
1FC0
1FE0
1FE0
0FE0
ENDCHAR
STARTCHAR bar
ENCODING 124
SWIDTH 125 0
DWIDTH 8 0
BBX 3 26 0 0
BITMAP
E0
E0
E0
E0
E0
E0
E0
E0
E0
E0
E0
E0
E0
E0
E0
E0
E0
E0
E0
E0
E0
E0
E0
E0
E0
E0
ENDCHAR
STARTCHAR braceright
ENCODING 125
SWIDTH 250 0
DWIDTH 15 0
BBX 11 26 0 0
BITMAP
FE00
FE00
FE00
FE00
1E00
1E00
1E00
1E00
1E00
1E00
1F00
1FE0
1FE0
1FE0
1FE0
1E00
1E00
1E00
1E00
1E00
1E00
1E00
FE00
FE00
FE00
FE00
ENDCHAR
STARTCHAR asciitilde
ENCODING 126
SWIDTH 250 0
DWIDTH 15 0
BBX 11 4 0 12
BITMAP
FFE0
FFE0
FFE0
FFE0
ENDCHAR
STARTCHAR quoteleft
ENCODING 8216
SWIDTH 125 0
DWIDTH 8 0
BBX 3 7 0 18
BITMAP
20
60
E0
E0
E0
E0
E0
ENDCHAR
STARTCHAR quoteright
ENCODING 8217
SWIDTH 125 0
DWIDTH 8 0
BBX 3 7 0 19
BITMAP
E0
E0
E0
E0
E0
C0
80
ENDCHAR
STARTCHAR quotedblleft
ENCODING 8220
SWIDTH 187 0
DWIDTH 11 0
BBX 7 7 0 18
BITMAP
20
62
E6
FE
FE
FE
FE
ENDCHAR
STARTCHAR quotedblright
ENCODING 8221
SWIDTH 187 0
DWIDTH 11 0
BBX 7 7 0 19
BITMAP
FE
FE
FE
FE
FE
DC
98
ENDCHAR
STARTCHAR .notdef
ENCODING 8231
SWIDTH 125 0
DWIDTH 8 0
BBX 1 1 0 0
BITMAP
00
ENDCHAR
ENDFONT
